<?xml version="1.0" encoding="UTF-8"?>
<svg version="1.1" xmlns="http://www.w3.org/2000/svg" width="1598" height="1640">
<path d="M0 0 C1.07523926 -0.00705963 2.15047852 -0.01411926 3.25830078 -0.02139282 C26.4745984 -0.1390797 49.29727055 -0.00691926 72.32421875 3.203125 C73.81894145 3.40432162 75.31373664 3.60498021 76.80859375 3.80517578 C102.82277048 7.31964498 128.59675233 12.01514505 154.32421875 17.203125 C155.08895508 17.35612061 155.85369141 17.50911621 156.64160156 17.66674805 C202.09359027 26.76209699 246.95775552 38.83465566 291.32421875 52.203125 C292.10035522 52.43626404 292.8764917 52.66940308 293.67614746 52.90960693 C319.15662145 60.57203035 344.26332659 69.27398454 369.32421875 78.203125 C370.02272949 78.45128967 370.72124023 78.69945435 371.44091797 78.95513916 C409.25135192 92.38871852 446.49382874 107.35851434 483.29968262 123.32598877 C486.1725947 124.57068637 489.04958927 125.8058727 491.92578125 127.04296875 C533.97866349 145.24062429 575.38215279 165.205217 616.07421875 186.265625 C616.68373383 186.58094177 617.2932489 186.89625854 617.92123413 187.22113037 C630.68553782 193.82918728 643.36329115 200.59214442 656.01220703 207.41845703 C659.19470008 209.13333424 662.38183736 210.83924587 665.5703125 212.54296875 C678.56862127 219.50717327 691.35281677 226.78325625 704.05224609 234.27734375 C707.60204969 236.36664764 711.15954634 238.44239495 714.71875 240.515625 C726.72524993 247.5140878 738.71445094 254.51968537 750.43115234 261.99755859 C752.49104384 263.30936466 754.55740025 264.61053518 756.625 265.91015625 C761.53216142 268.99614096 766.42926111 272.09782755 771.32421875 275.203125 C772.26410645 275.79867188 773.20399414 276.39421875 774.17236328 277.0078125 C786.39186434 284.75882354 798.53455802 292.61376118 810.57421875 300.640625 C811.65574219 301.36137207 812.73726562 302.08211914 813.8515625 302.82470703 C820.37416278 307.18815011 826.84349888 311.62180996 833.28857422 316.09838867 C836.68416267 318.45268882 840.09547334 320.78291125 843.51098633 323.1081543 C851.63961053 328.64274309 859.69536922 334.26406563 867.67236328 340.01464844 C869.89629659 341.61472342 872.12784317 343.20400478 874.359375 344.79345703 C876.70783964 346.46720617 879.05315221 348.14533657 881.39794922 349.82421875 C882.73763719 350.78322479 884.07784506 351.74150481 885.41845703 352.69921875 C895.89531077 360.18969051 906.21697043 367.85126254 916.40917969 375.72460938 C918.15165525 377.06989648 919.89715531 378.41108777 921.64453125 379.75 C924.87589336 382.22818748 928.10126458 384.71402355 931.32421875 387.203125 C932.0006543 387.72487305 932.67708984 388.24662109 933.37402344 388.78417969 C943.57491634 396.65863287 953.65191722 404.66455053 963.62744141 412.82226562 C965.90672095 414.67717283 968.20836315 416.50324423 970.51171875 418.328125 C974.89604987 421.82234862 979.17114897 425.43622945 983.44042969 429.0690918 C986.84928593 431.9666196 990.28796736 434.82075623 993.76171875 437.640625 C998.80393889 441.73974947 1003.73501281 445.95960741 1008.64233398 450.21850586 C1011.13567726 452.37357597 1013.57810309 454.37238123 1016.32421875 456.203125 C1016.32421875 456.863125 1016.32421875 457.523125 1016.32421875 458.203125 C1016.8759375 458.43644531 1017.42765625 458.66976563 1017.99609375 458.91015625 C1020.93677142 460.54331784 1023.11499126 462.59651707 1025.57421875 464.890625 C1028.76905593 467.84853335 1031.966359 470.79431846 1035.26171875 473.640625 C1039.25948715 477.10976287 1043.14757347 480.69428484 1047.02514648 484.29663086 C1049.3488022 486.44395324 1051.68008317 488.47742704 1054.1875 490.41015625 C1054.89261719 491.00183594 1055.59773438 491.59351563 1056.32421875 492.203125 C1056.32421875 492.863125 1056.32421875 493.523125 1056.32421875 494.203125 C1056.8553125 494.40550781 1057.38640625 494.60789062 1057.93359375 494.81640625 C1061.36554812 496.80716409 1063.83563605 499.54621885 1066.57421875 502.390625 C1069.90977569 505.83468801 1073.25250819 509.18460519 1076.90698242 512.29248047 C1081.98908545 516.71603235 1086.72727574 521.46266053 1091.484375 526.23046875 C1092.44251735 527.18793525 1093.40080791 528.14525345 1094.35923767 529.10243225 C1096.35513162 531.09686247 1098.34923327 533.09306241 1100.34204102 535.09057617 C1102.87563738 537.62986899 1105.41369858 540.16464403 1107.95313358 542.69809628 C1109.92912578 544.67044684 1111.90269554 546.64520763 1113.87557793 548.62066841 C1115.25832474 550.00439128 1116.64305805 551.38612814 1118.02784729 552.76780701 C1122.48472466 557.24112412 1126.80922928 561.76633652 1130.9105072 566.56922913 C1132.77662389 568.72599184 1134.77794196 570.71793109 1136.82421875 572.703125 C1140.17748233 576.01687201 1143.32990019 579.41966061 1146.3984375 582.99609375 C1148.71832367 585.65478683 1151.11476118 588.23927617 1153.51171875 590.828125 C1159.08963329 596.87470729 1164.42954139 603.10979733 1169.76074219 609.37353516 C1172.43116725 612.49848291 1175.12867061 615.59985363 1177.82421875 618.703125 C1179.45852868 620.58823164 1181.09235928 622.47375271 1182.72607422 624.359375 C1183.77393115 625.5682683 1184.82241204 626.7766211 1185.87158203 627.984375 C1207.57112745 652.98314413 1227.54007944 679.51228676 1244.15161133 708.19335938 C1245.06479964 709.75849912 1245.99194758 711.31549705 1246.92456055 712.86914062 C1251.1297687 719.93292268 1254.84259641 727.10404354 1258.26171875 734.578125 C1258.77677979 735.70371826 1259.29184082 736.82931152 1259.82250977 737.98901367 C1269.5117378 759.4710621 1276.95739657 781.64248606 1279.32421875 805.203125 C1279.5253125 807.11351562 1279.5253125 807.11351562 1279.73046875 809.0625 C1282.80017046 843.1512725 1272.19463037 876.93517896 1257.32421875 907.203125 C1256.84855469 908.17362793 1256.37289063 909.14413086 1255.8828125 910.14404297 C1242.38316328 937.42386481 1225.51334727 962.21752831 1206.875 986.20703125 C1205.4057395 988.09819527 1203.94279926 989.99410112 1202.48046875 991.890625 C1197.38362592 998.46954139 1192.11690466 1004.86757509 1186.66821289 1011.15820312 C1183.61318402 1014.68602816 1180.63009549 1018.25798904 1177.69921875 1021.890625 C1173.8449401 1026.63864943 1169.78759916 1031.16359576 1165.6484375 1035.6640625 C1163.73435727 1037.75507452 1161.86192228 1039.86847522 1160.01171875 1042.015625 C1156.14892813 1046.46563319 1152.11276835 1050.75237441 1148.09155273 1055.05859375 C1145.19579259 1058.16570797 1142.33990916 1061.29114015 1139.57421875 1064.515625 C1136.47523307 1068.11320986 1133.13744914 1071.42909552 1129.73046875 1074.734375 C1127.83771582 1076.67629034 1126.08482191 1078.63412959 1124.32739258 1080.69335938 C1119.73217084 1085.95980834 1114.80545826 1090.88606507 1109.8671875 1095.828125 C1108.87300132 1096.82553146 1107.87888743 1097.82300998 1106.88484192 1098.82055664 C1104.8182977 1100.89304084 1102.74974621 1102.96349703 1100.67993164 1105.03271484 C1098.02395096 1107.68859293 1095.37497404 1110.35134402 1092.72761059 1113.01580811 C1090.68503882 1115.0694598 1088.63797752 1117.11858959 1086.58959389 1119.16644287 C1085.60994178 1120.14727645 1084.63191409 1121.12973525 1083.65553856 1122.11383057 C1082.29877026 1123.48033881 1080.93507917 1124.83996323 1079.57104492 1126.19921875 C1078.79717941 1126.97450928 1078.0233139 1127.7497998 1077.22599792 1128.54858398 C1075.32421875 1130.203125 1075.32421875 1130.203125 1073.32421875 1130.203125 C1073.32421875 1130.863125 1073.32421875 1131.523125 1073.32421875 1132.203125 C1071.92578125 1133.578125 1071.92578125 1133.578125 1069.94921875 1135.203125 C1066.57626727 1138.06357855 1063.42748398 1141.05182161 1060.32421875 1144.203125 C1056.87645192 1147.68745905 1053.36507941 1150.98525316 1049.640625 1154.16796875 C1046.53041235 1156.90055018 1043.52946831 1159.74426134 1040.51171875 1162.578125 C1035.53409139 1167.23949244 1030.42796348 1171.63184618 1025.1015625 1175.89453125 C1021.89977011 1178.55593674 1018.86210324 1181.35797369 1015.82421875 1184.203125 C1011.07291743 1188.64705887 1006.20071477 1192.85409559 1001.12890625 1196.93359375 C998.03186464 1199.43969566 994.98636575 1202.00009738 991.94921875 1204.578125 C991.40450928 1205.03968994 990.8597998 1205.50125488 990.29858398 1205.97680664 C987.56080377 1208.29853779 984.82846251 1210.62643898 982.1015625 1212.9609375 C974.90093541 1219.1116328 967.54954068 1225.03015284 960.07275391 1230.84130859 C957.80054324 1232.61098063 955.53811784 1234.39290304 953.27587891 1236.17529297 C944.32435329 1243.22606422 935.334 1250.22699672 926.32421875 1257.203125 C925.25034912 1258.03529541 925.25034912 1258.03529541 924.15478516 1258.88427734 C915.54153684 1265.54870149 906.83542128 1272.05624337 897.98217773 1278.39868164 C893.06057322 1281.92915516 888.20937518 1285.53904114 883.38671875 1289.203125 C876.75512767 1294.22849738 869.9421896 1298.95119925 863.0546875 1303.61791992 C858.77869852 1306.51641204 854.54734834 1309.45210667 850.38671875 1312.515625 C845.87347565 1315.83825796 841.24757013 1318.95266829 836.5703125 1322.0390625 C833.72561766 1323.93552573 830.91158485 1325.86678331 828.10449219 1327.81787109 C794.64278119 1351.04897696 759.96000888 1372.79268445 724.96582031 1393.62255859 C722.12732087 1395.32093617 719.29937759 1397.03600165 716.47265625 1398.75390625 C685.56983702 1417.49896398 653.63603895 1434.41950066 621.52734375 1450.9921875 C616.17096172 1453.75861666 610.83810117 1456.56701422 605.51171875 1459.390625 C588.74424445 1468.24979844 571.70287395 1476.55933607 554.5625 1484.66943359 C551.72171037 1486.01486788 548.8836889 1487.3659848 546.04620361 1488.71836853 C523.68383865 1499.36434256 501.06114609 1509.38573405 478.32421875 1519.203125 C477.53164673 1519.54601563 476.73907471 1519.88890625 475.92248535 1520.2421875 C403.26808151 1551.66194743 328.54389644 1577.88012447 252.32421875 1599.203125 C251.34660583 1599.4774939 250.36899292 1599.75186279 249.36175537 1600.0345459 C185.57154457 1617.90935403 120.28952422 1632.38097018 54.32421875 1639.203125 C52.79148315 1639.36893066 52.79148315 1639.36893066 51.2277832 1639.53808594 C39.57564262 1640.62759646 27.82871741 1640.44612578 16.13671875 1640.453125 C14.39152954 1640.45463562 14.39152954 1640.45463562 12.61108398 1640.45617676 C-4.01486002 1640.44642715 -20.26500174 1640.11596842 -36.67578125 1637.203125 C-37.55347168 1637.05858887 -38.43116211 1636.91405273 -39.33544922 1636.76513672 C-76.1343565 1630.63989925 -106.79390406 1614.7972476 -133.67578125 1589.203125 C-134.330625 1588.58953125 -134.98546875 1587.9759375 -135.66015625 1587.34375 C-140.81831163 1582.37488472 -145.23012186 1576.80597415 -149.67578125 1571.203125 C-150.44792969 1570.24792969 -151.22007812 1569.29273438 -152.015625 1568.30859375 C-177.57783161 1536.03475429 -195.51687464 1498.15430569 -210.23925781 1459.93212891 C-211.63298081 1456.31422864 -213.04073579 1452.70201776 -214.44921875 1449.08984375 C-251.959497 1352.23244371 -276.17142658 1249.9511177 -316.53503418 903.54232788 C-316.627742 901.34284903 -316.72313364 899.14348141 -316.82141113 896.94424438 C-317.96149716 870.98030302 -317.91982806 844.99965935 -317.92578125 819.015625 C-317.92637039 817.83555752 -317.92695953 816.65549004 -317.92756653 815.43966293 C-317.94114072 776.82097701 -317.34125884 738.36142081 -314.90362549 699.815979 C-314.67532416 696.19587707 -314.45579043 692.57532554 -314.23779297 688.95458984 C-307.17369591 573.00094429 -290.19161006 457.78597895 -242.67578125 275.203125 C-242.43192688 274.40108643 -242.18807251 273.59904785 -241.93682861 272.77270508 C-231.49788349 238.49702444 -220.0727565 204.44527814 -206.67578125 171.203125 C-206.04905518 169.64078125 -206.04905518 169.64078125 -205.40966797 168.046875 C-195.46628885 143.43299775 -183.95275333 119.61446264 -169.67578125 97.203125 C-169.29728027 96.60628906 -168.9187793 96.00945312 -168.52880859 95.39453125 C-151.0673207 68.04811999 -129.73174698 43.84588146 -102.35644531 26.28857422 C-100.95778448 25.3852555 -99.57617549 24.45560121 -98.19921875 23.51953125 C-89.74921549 18.01060687 -80.10542885 14.64460223 -70.67578125 11.203125 C-69.98661621 10.95143555 -69.29745117 10.69974609 -68.58740234 10.44042969 C-47.04667762 2.82628729 -22.72070963 0.1000983 0 0 Z " fill="#8a2be2" transform="translate(317.67578125,-0.203125)"/>
</svg>
